<?xml version="1.0" standalone="no"?>
<!DOCTYPE svg PUBLIC "-//W3C//DTD SVG 20010904//EN"
 "http://www.w3.org/TR/2001/REC-SVG-20010904/DTD/svg10.dtd">
<svg version="1.0" xmlns="http://www.w3.org/2000/svg"
 width="1000.000000pt" height="1000.000000pt" viewBox="0 0 1000.000000 1000.000000"
 preserveAspectRatio="xMidYMid meet">
<metadata>
Created by potrace 1.14, written by Peter Selinger 2001-2017
</metadata>
<g transform="translate(0.000000,1000.000000) scale(0.100000,-0.100000)"
fill="#000000" stroke="none">
<path d="M2870 9489 c-336 -39 -684 -147 -960 -296 -246 -134 -428 -270 -631
-472 -416 -417 -648 -872 -756 -1488 -16 -90 -18 -262 -21 -2163 -4 -2328 -6
-2237 78 -2571 117 -465 350 -870 699 -1220 417 -416 872 -648 1488 -756 90
-16 262 -18 2163 -21 2328 -4 2237 -6 2571 78 465 117 870 350 1220 699 416
417 648 872 756 1488 16 90 18 262 21 2163 4 2328 6 2237 -78 2571 -117 465
-350 870 -699 1220 -417 416 -872 648 -1488 756 -90 16 -258 17 -2193 19
-1152 1 -2129 -2 -2170 -7z m4703 -2901 c22 -7 55 -27 73 -45 46 -45 58 -97
44 -185 -22 -145 -83 -226 -185 -249 -71 -16 -231 -8 -272 14 -70 37 -98 112
-82 222 22 142 73 214 179 246 40 12 199 10 243 -3z m-3536 -40 c-3 -13 -15
-85 -28 -160 l-22 -138 -374 0 c-205 0 -373 -3 -373 -6 0 -3 -18 -113 -40
-244 -22 -131 -40 -246 -40 -254 0 -14 40 -16 370 -16 346 0 370 -1 370 -17 0
-10 -11 -81 -23 -158 l-23 -140 -377 -3 c-244 -1 -377 -6 -377 -12 0 -44 -335
-2000 -352 -2050 -75 -235 -228 -352 -442 -338 -84 6 -163 38 -243 99 -58 45
-191 192 -387 427 -106 127 -126 156 -115 166 8 7 68 55 133 106 l119 93 21
-25 c12 -15 122 -143 245 -286 221 -256 225 -260 254 -251 16 5 31 10 33 12 3
2 344 2038 344 2052 0 3 -146 5 -325 5 -179 0 -325 2 -325 5 0 9 40 258 46
288 l6 27 324 0 324 0 5 23 c3 12 18 103 35 202 36 219 42 242 88 330 50 94
138 187 216 225 108 54 154 58 565 59 l373 1 -5 -22z m697 -845 c-35 -192
-186 -1138 -190 -1198 -11 -132 16 -227 84 -297 51 -53 112 -71 222 -66 74 3
98 9 156 38 134 65 293 264 355 445 20 56 52 225 108 570 45 270 83 500 86
513 5 22 6 22 201 22 l196 0 -6 -27 c-3 -16 -77 -458 -165 -983 -88 -525 -172
-995 -186 -1045 -34 -121 -112 -275 -178 -356 -164 -197 -439 -309 -760 -309
-290 0 -503 66 -651 203 l-67 62 125 124 125 125 55 -52 c110 -105 251 -148
455 -140 102 5 139 10 195 31 176 65 279 192 335 414 18 67 91 498 91 531 0
27 -22 8 -46 -40 -79 -158 -221 -327 -321 -381 -161 -87 -422 -87 -572 -1
-101 58 -184 179 -216 315 -9 40 -15 114 -15 198 0 121 8 182 79 615 44 265
87 528 96 586 9 58 18 111 20 118 3 9 52 12 199 12 l196 0 -6 -27z m2776 21
c0 -4 -70 -366 -155 -806 -86 -439 -153 -803 -150 -808 3 -5 21 -14 41 -20 40
-14 -2 -48 429 348 l250 230 35 -29 c19 -15 69 -60 110 -98 l75 -70 -245 -244
c-323 -320 -446 -412 -610 -453 -78 -20 -200 -14 -275 12 -103 36 -176 140
-191 270 -9 72 2 137 127 782 60 309 109 565 109 567 0 3 -146 5 -325 5 -179
0 -325 3 -325 8 0 4 11 72 25 152 14 80 25 148 25 153 0 4 236 7 525 7 289 0
525 -3 525 -6z"/>
</g>
</svg>
